<svg xmlns="http://www.w3.org/2000/svg" width="512" height="120" viewBox="0 0 512 120" fill="none"><g clip-path="url(#clip0_26_234)"><path d="M254.798 31.587C256.322 31.5648 260.194 31.4135 261.374 31.9058C263.468 32.7793 266.08 39.159 267.07 41.1653L274.425 56.0255C278.285 48.285 281.939 40.14 286.235 32.6853C288.575 30.906 296.668 30.516 296.645 34.676C296.553 50.805 297.177 67.2393 296.663 83.3013C296.545 83.317 296.428 83.331 296.31 83.3433C294.858 83.4953 288.877 83.8338 287.745 82.922C287.062 81.1845 287.332 67.749 287.34 64.875C287.347 59.6035 287.425 54.152 287.27 48.896C284.988 52.6528 282.129 60.4995 279.199 63.4148C278.017 64.092 271.244 64.2043 270.276 63.6478C267.462 62.0308 262.988 51.3478 261.446 48.5365C261.444 52.072 261.769 81.715 261.234 82.7338C261.066 83.05 260.811 83.2465 260.466 83.3463C259.052 83.7535 253.593 83.7075 252.361 82.99C252.291 82.95 252.298 82.9045 252.278 82.8275C251.391 79.4168 251.938 66.6193 251.936 62.1578L251.918 44.5318C251.918 41.7953 251.926 39.0545 251.928 36.3183C251.931 34.0278 252.228 32.1795 254.798 31.587Z" fill="#FEFEFE"></path><path d="M349.737 31.5978C361.039 31.431 359.152 31.0113 363.809 41.3318L372.557 60.7565C373.656 63.1903 376.078 68.9125 377.388 70.8613L377.393 43.9115C377.405 40.968 377.463 38.0323 377.295 35.0928C377.248 34.2778 377.293 32.8718 377.89 32.255C379.075 31.03 384.749 31.3998 385.893 32.3555C386.046 32.8678 386.106 33.4425 386.113 33.978C386.333 48.3858 386.168 62.81 386.206 77.2215C386.211 80.0095 386.701 81.0468 384.676 83.1218C382.282 83.8098 376.236 83.5268 373.706 83.1228C371.652 80.8453 369.92 76.3298 368.595 73.4055L360.707 56.0008C359.422 53.1653 357.298 48.144 355.708 45.66C355.498 58.0135 355.966 70.4825 355.458 82.7818C355.413 83.8655 347.255 83.8713 347.215 82.4573C346.745 66.5878 347.115 50.626 347.023 34.7348C347.013 32.876 348.125 32.1143 349.737 31.5978Z" fill="#FEFEFE"></path><path d="M446.126 31.098C453.064 31.0512 456.104 34.7915 457.151 41.1377C457.933 45.8862 468.346 80.8622 467.533 83.001C465.956 83.8075 460.143 83.4782 458.203 83.3412C456.878 78.962 455.696 73.5135 454.621 69.0013L447.078 69.0273C445.249 69.0048 443.117 68.779 441.325 69.1403C435.841 70.245 437.778 78.904 435.276 82.5228C434.864 83.1215 434.404 83.2968 433.714 83.4055C432.259 83.6338 426.971 83.8762 425.916 83.0567C425.719 82.9042 425.709 82.6833 425.681 82.4473C425.499 80.797 435.564 42.6445 437.058 37.99C437.483 36.6722 437.936 35.438 438.81 34.345C440.677 32.0192 443.314 31.391 446.126 31.098ZM440.675 61.0162L447.016 61.0112L452.709 61.0207C452.005 58.0832 448.278 41.1247 447.111 39.5072L446.356 39.0975C445.274 40.4917 441.325 58.0717 440.675 61.0162Z" fill="#FEFEFE"></path><path d="M318.625 31.4132C323.528 30.7735 333.159 31.111 337.738 32.6117C337.94 34.4637 337.837 37.3347 337.655 39.1892C333.703 39.6242 320.824 38.3122 317.777 40.9987C316.313 42.291 316.718 50.3037 316.745 52.977C322.976 52.9692 329.472 52.8275 335.513 53.0215C337.857 53.3522 337.298 59.9552 336.268 60.3335C330.929 62.2972 320.497 57.8815 317.2 64.3267C316.19 66.3032 316.638 71.7665 317.6 74.1715C321.694 77.4942 334.673 74.4337 337.408 76.1517C337.95 76.9872 338.025 81.3472 337.528 82.345C337.22 82.9665 335.023 83.3725 334.286 83.4047C327.208 83.7725 317.397 85.4115 311.326 80.9327C305.5 76.6357 307.17 64.4325 306.98 57.769C306.82 52.1377 306.755 45.2537 307.712 39.8212C308.597 34.79 313.821 31.9867 318.625 31.4132Z" fill="#FEFEFE"></path><path d="M223.35 31.4273C226.957 31.0208 238.989 30.639 242.442 32.8933C243.111 33.3305 242.737 38.1185 242.666 39.2245C238.006 39.7273 232.188 39.2225 227.422 39.312C225.898 39.3405 224.492 39.4553 223.356 40.618C221.078 42.9518 221.723 49.733 221.76 52.9808C227.872 52.907 234.27 52.97 240.406 52.9833C241.191 52.985 241.485 53.2648 241.875 53.8808C241.989 55.5568 242.246 58.4858 241.697 60.0503C239.279 62.8853 220.973 56.379 221.663 67.555C221.835 70.3365 221.639 71.3033 222.66 74.0595C226.189 77.4903 237.531 74.596 242.142 75.9953C243.126 76.2935 242.967 81.6993 242.441 82.5195C242.087 82.8615 241.774 83.003 241.28 83.0518C231.488 84.0185 213.993 87.1233 212.324 73.134C211.833 69.0233 211.798 62.396 211.993 58.1403C212.489 47.2755 208.761 33.7223 223.35 31.4273Z" fill="#FEFEFE"></path><path d="M149.318 31.4145C153.621 30.886 157.993 31.1748 162.29 31.4413C169.196 31.8698 168.979 32.9223 168.238 39.2458C164.399 39.5853 159.872 39.2475 155.984 39.3415C154.077 39.29 149.691 39.346 148.433 41.0488C146.879 43.1523 147.443 50.2928 147.475 52.9698L160.07 52.9545C161.913 52.9525 166.365 52.4683 167.389 53.765C167.669 55.395 168.291 60.3173 166.092 60.7465C160.981 61.744 150.17 58.0438 147.898 64.6305C147.101 66.9418 147.239 71.9565 148.319 74.1885C152.663 77.4648 164.354 74.529 167.826 76.0103C167.984 76.2023 168.247 76.4423 168.261 76.6775C168.428 79.3478 169.55 83.0848 165.659 83.327C154.12 84.045 137.877 87.0398 137.769 70.2638C137.666 63.4285 137.919 56.4408 137.746 49.6175C137.516 40.5733 138.156 32.6005 149.318 31.4145Z" fill="#FEFEFE"></path><path d="M392.402 31.6005L415.681 31.6148C417.83 31.6145 423.562 31.397 425.321 31.5235C425.859 31.5608 426.371 31.7495 426.806 32.0683C428.423 33.271 428.32 38.0335 427.313 39.4138C425.534 40.4268 421.612 39.6995 419.458 39.765C417.066 39.8378 414.669 40.1025 414.446 43.0653C414.209 46.2335 414.326 49.4865 414.329 52.6495L414.351 71.625C414.374 73.9875 414.859 81.8123 413.642 83.0893C412.347 83.6003 406.851 83.679 405.364 83.2278C403.949 81.866 404.444 73.3143 404.449 71.1255L404.499 51.0105C404.521 36.9263 404.116 40.4913 392.299 39.733C390.02 39.5868 390.852 34.0245 391.13 32.6178C391.247 32.018 391.892 31.8323 392.402 31.6005Z" fill="#FEFEFE"></path><path d="M178.984 31.6055C189.235 31.4302 187.549 31.2965 187.496 41.4442L187.439 60.5982C187.434 63.2942 187.077 72.0325 188.3 73.8577C190.796 77.5817 202.381 74.6507 206.248 75.9175C207.499 76.829 207.339 78.9415 207.151 80.308C206.893 82.187 206.879 82.5895 205.083 83.1435C200.083 83.951 192.587 84.3372 187.69 83.4372C176.478 81.3762 177.675 71.187 177.679 62.46L177.661 46.4897C177.657 42.2962 177.566 36.9862 177.774 32.7062C177.797 32.2285 178.563 31.865 178.984 31.6055Z" fill="#FEFEFE"></path><path d="M332.236 96.0193C334.176 95.8258 336.183 97.4278 336.795 99.2415C337.305 100.791 337.183 102.479 336.458 103.939C335.663 105.534 334.813 105.977 333.216 106.522C330.552 106.581 328.617 105.502 327.952 102.758C327.563 101.2 327.825 99.5495 328.677 98.1875C329.597 96.7025 330.624 96.4013 332.236 96.0193ZM333.449 105.018C336.815 102.683 336.055 97.38 331.657 97.4668C329.47 98.8075 328.737 101.325 330.047 103.614C330.882 105.07 331.916 105.05 333.449 105.018Z" fill="#FEFEFE"></path><path d="M272.139 96.0665C274.343 96.3732 275.945 97.1782 276.675 99.433C277.16 100.969 277.005 102.636 276.248 104.058C275.403 105.683 274.463 106.064 272.823 106.592C266.17 106.297 265.585 97.269 272.139 96.0665ZM273.436 104.983C276.56 102.401 275.853 97.2742 271.444 97.4762C268.01 99.8652 268.292 105.255 273.436 104.983Z" fill="#FEFEFE"></path><path d="M414.406 96.2712C417.243 96.2912 424.094 96.1385 420.232 100.939C420.192 102.348 422.059 101.628 421.307 105.005C419.94 106.921 416.511 106.474 414.334 106.45C414.311 103.057 414.334 99.6635 414.406 96.2712ZM415.923 105.026C417.521 105.001 418.428 105.076 419.945 104.533C420.087 103.666 420.127 103.464 419.725 102.675C418.938 101.876 418.19 101.938 417.133 101.932C416.726 101.93 416.318 101.933 415.911 101.939C415.918 102.808 415.976 104.202 415.923 105.026ZM419.238 100.453C419.475 99.556 419.6 99.244 419.355 98.3457C418.345 97.2342 417.323 97.4837 415.898 97.5067C415.898 98.3552 415.771 99.673 416.236 100.31C416.831 100.785 418.13 100.587 418.915 100.496C419.023 100.483 419.13 100.469 419.238 100.453Z" fill="#FEFEFE"></path><path d="M401.539 104.518C401.864 103.097 403.766 96.9593 404.749 96.2765C405.448 96.2455 406.108 96.1473 406.733 96.4475C407.143 97.9748 407.251 105.301 406.126 106.31L405.736 106.166C404.964 104.809 405.176 101.221 405.206 99.5268C405.228 99.4388 405.208 99.0998 405.206 98.987C404.144 100.083 402.962 106.327 401.369 106.449C399.997 105.308 398.253 99.5718 397.658 97.6948C397.868 100.814 398.075 104.845 397.268 107.855C395.863 104.121 396.226 100.201 396.308 96.2238C396.786 96.2303 397.67 96.2333 398.048 96.4785C399.822 97.6343 401.017 102.541 401.539 104.518Z" fill="#FEFEFE"></path><path d="M451.415 96.1275C451.857 96.177 452.907 96.3013 453.204 96.594C455.174 98.5273 456.846 101.935 458.296 104.204C458.086 102.524 457.918 97.198 459.093 96.2035L459.318 96.3678C460.118 98.1975 459.89 104.166 459.888 106.516C459.403 106.509 458.471 106.468 458.126 106.147C455.986 104.162 454.529 100.954 452.944 98.4948C453.257 101.202 453.347 103.395 452.612 106.002L452.097 106.266L452.25 106.495L452.539 106.11L452.077 106.287C451.135 104.705 451.39 98.1053 451.415 96.1275Z" fill="#FEFEFE"></path><path d="M483.317 96.1795L484.514 96.3075C485.866 97.049 488.873 105.598 488.638 106.36C485.811 106.319 487.416 104.737 485.869 103.776L482.342 103.759C481.942 104.838 481.712 106.168 480.495 106.374L480.208 106.037C480 104.261 482.492 98.0108 483.317 96.1795ZM484.929 102.581L485.496 102.396C485.546 101.708 484.522 98.3108 484.212 97.9135C483.719 99.2308 482.797 100.986 483.152 102.208C483.792 102.658 484.039 102.525 484.929 102.581Z" fill="#FEFEFE"></path><path d="M383.916 96.2018C385.173 96.2038 385.578 96.2482 386.268 97.3885C386.873 98.3892 389.485 105.81 389.245 106.663C387.538 106.315 387.42 104.488 386.626 103.774L382.949 103.773C382.692 104.66 382.547 105.145 382.162 105.983C381.504 106.453 381.797 106.342 380.899 106.335L380.677 105.969C380.969 103.908 383.071 98.3775 383.916 96.2018ZM385.376 102.58L386.173 102.384C386.406 101.43 385.308 98.9007 384.908 97.8802C384.489 99.196 383.594 101.073 383.724 102.178C384.261 102.651 384.541 102.52 385.376 102.58Z" fill="#FEFEFE"></path><path d="M257.165 96.0642C258.532 96.1647 260.871 97.1442 260.889 98.7517C259.174 99.3492 258.949 97.4725 257.422 97.4657C256.585 97.462 255.15 97.9155 255.113 98.8955C256.42 100.795 261.664 101.094 260.976 104.289C260.646 105.831 258.849 106.323 257.497 106.652C255.723 106.518 253.826 106.07 253.693 103.954C255.045 103.479 256.357 106.374 259.474 104.327L259.527 103.839C258.692 102.065 251.983 100.96 253.885 97.6757C254.483 96.64 256.05 96.272 257.165 96.0642Z" fill="#FEFEFE"></path><path d="M359.557 96.345C361.302 96.0808 363.134 96.1275 364.523 97.3943C364.923 98.2528 364.886 97.9157 364.788 98.7885C363.691 98.9117 361.029 96.927 360.127 97.5818C356.355 100.321 366.735 100.837 365.206 104.448C364.826 105.342 363.324 106.165 362.436 106.483C360.747 106.723 358.562 106.3 357.538 104.817C357.378 103.922 357.345 104.267 357.665 103.418C358.637 103.45 362.479 107.208 363.419 103.748C362.696 101.63 353.504 100.412 359.557 96.345Z" fill="#FEFEFE"></path><path d="M297.457 96.0905C298.457 96.4457 298.595 97.145 298.627 98.066C298.72 100.64 298.225 107.841 302.934 104.401C304.346 103.368 303.381 98.3315 304.078 96.4265L304.478 96.2903C305.19 96.9315 305 96.6587 305.163 97.6882C305.33 100.449 306.003 104.312 303.403 106.117C302.609 106.677 301.621 106.891 300.669 106.707C299.572 106.495 298.605 105.85 297.987 104.918C296.585 102.839 296.98 98.4457 297.457 96.0905Z" fill="#FEFEFE"></path><path d="M316.305 106.771C314.343 105.834 313.508 105.378 312.731 103.216C311.844 100.738 312.296 97.2888 315.211 96.498C318.165 95.6955 319.667 96.3403 321.049 98.8835L320.802 99.3848L321.124 99.0305L321.187 99.1675L320.917 99.4518C319.662 98.7558 317.435 97.26 315.955 97.7765C313.034 98.7973 313.421 103.52 315.705 104.964C317.368 106.015 319.16 103.19 320.704 103.041L321.054 103.216C320.984 105.178 318.962 106.186 317.345 106.716L316.305 106.771Z" fill="#FEFEFE"></path><path d="M437.848 96.2588C439.253 96.2945 442.692 96.2638 443.839 97.0663L443.297 96.9015L443.059 97.3828C442.155 97.5928 440.382 97.5268 439.39 97.525L439.4 100.479C441.522 100.553 443.157 100.694 445.211 101.224C443.519 101.714 441.215 101.84 439.415 101.999L439.405 104.988C440.405 104.96 442.757 104.699 443.307 105.595C442.135 106.631 439.338 106.449 437.796 106.456C437.778 103.057 437.796 99.6575 437.848 96.2588Z" fill="#FEFEFE"></path><path d="M344.141 96.2128C345.323 96.262 349.682 96.2908 350.339 96.901C349.432 97.824 346.915 97.5403 345.668 97.5163C345.753 98.6043 345.758 99.342 345.728 100.435C346.913 100.487 348.855 100.424 349.677 101.22C349.057 101.888 346.968 101.927 345.985 102.015C345.656 102.424 345.748 104.237 345.716 104.974C346.76 104.952 349.052 104.75 349.72 105.552C348.515 106.552 345.673 106.395 344.146 106.395C344.051 102.996 344.106 99.612 344.141 96.2128Z" fill="#FEFEFE"></path><path d="M470.028 96.3618C471.182 96.225 472.667 96.3593 473.717 96.8815L473.517 97.2393L471.877 97.52C471.767 97.6167 471.64 97.7298 471.495 97.8585C471.662 100.463 471.665 103.934 471.29 106.365C470.823 106.294 470.77 106.27 470.413 105.96C469.565 103.847 469.84 99.8938 469.87 97.4983C468.983 97.5185 468.023 97.6218 467.248 97.2035L467.218 96.8785C468.006 96.317 469.055 96.3888 470.028 96.3618Z" fill="#FEFEFE"></path><path d="M284.356 96.045L285.08 96.278C285.773 97.2047 285.51 103.418 285.51 105.004C286.478 104.972 288.407 104.69 288.994 105.463L288.575 106.208L283.996 106.443C283.961 103.134 283.816 99.276 284.356 96.045Z" fill="#FEFEFE"></path><path d="M429.46 96.1613L430.035 96.5455C430.52 98.158 430.595 104.935 429.778 106.493C428.075 105.272 428.353 97.3315 429.46 96.1613Z" fill="#FEFEFE"></path><path d="M495.816 96.31C496.041 96.3392 496.816 96.5345 496.866 96.7262C497.491 99.122 497.459 103.931 496.596 106.122C496.494 106.127 496.249 106.03 496.136 105.992C495.132 104.113 495.666 98.6047 495.816 96.31Z" fill="#FEFEFE" fill-opacity="0.988235"></path><path d="M330.757 93.3635C332.144 93.6385 332.784 93.6432 334.176 93.7675L334.368 94.0757L333.998 95.1237C333.074 94.9327 330.784 94.7305 330.479 94.4185L330.757 93.3635Z" fill="#FEFEFE"></path><path d="M316.305 106.771L317.345 106.716C318.325 107.322 318.542 107.415 318.537 108.588L318.007 109.055C317.438 109.188 316.973 109.368 316.463 109.087L316.59 108.538L317.208 108.16C316.948 107.488 316.76 107.299 316.305 106.771Z" fill="#FEFEFE" fill-opacity="0.980392"></path><path d="M54.8419 0.0498047C69.5968 10.1448 83.8428 22.0607 98.448 32.1377C112.092 41.5515 109.594 46.3515 109.74 61.6967C109.756 63.3847 109.71 65.1587 109.721 66.855C109.417 75.8907 111.715 86.425 103.282 92.662C98.7841 95.988 94.135 99.11 89.5361 102.293L64.0039 120L63.9554 97.972C63.9499 91.3172 62.9026 80.429 68.4208 76.0122C73.723 71.7682 81.8173 65.959 87.6138 62.493C81.5458 57.936 75.4476 53.4197 69.3191 48.9445C62.504 43.9215 56.0878 41.1302 54.8531 32.1255C54.8366 32.0052 54.8211 31.8847 54.8061 31.764C53.7629 36.5352 52.7169 39.5987 48.7473 42.6895C45.6416 45.1077 42.4491 47.4127 39.2847 49.7467L22.0714 62.4435C25.3568 64.5225 28.7315 66.9522 31.915 69.1645C37.95 73.3585 43.6516 76.1787 45.2877 83.9932C46.15 88.1117 45.7331 93.6192 45.7776 97.9242C45.8533 105.235 45.6638 112.667 45.7741 119.969C43.1525 118.324 40.4201 116.425 37.9107 114.615C26.6965 106.526 14.7174 99.2032 3.94874 90.5782C2.3601 89.3057 0.957194 85.6085 0.528778 83.73C0.338897 82.867 0.162616 82.001 0 81.1325V46.8775C0.425976 44.2607 1.34319 40.2047 3.33051 38.4107C8.09202 34.113 14.9028 29.3542 20.0975 25.571C31.1032 17.5551 41.9722 9.25472 52.9813 1.32829C53.5947 0.892161 54.215 0.465943 54.8419 0.0498047ZM99.1543 54.3572C100.531 53.4252 101.895 52.4742 103.246 51.5045C103.099 48.45 102.983 43.9502 100.408 41.8625C96.2065 38.4557 91.4567 35.103 87.09 31.8837L61.2783 12.8693C61.4675 19.5783 60.8824 26.7967 61.6662 33.3655C62.0039 36.1945 70.6322 41.7707 72.9919 43.553C79.6685 48.596 86.5869 53.385 93.208 58.4967L99.1543 54.3572ZM6.5684 59.625C6.57045 61.6462 6.62196 63.88 6.56437 65.8825L9.40288 63.7095L10.8769 62.549C9.58029 61.637 7.90454 60.3935 6.5684 59.625ZM16.5059 58.49C22.8246 53.717 29.1844 48.9987 35.5848 44.3357C40.0632 41.0457 47.8576 36.7512 48.196 31.1795C48.2962 29.526 48.5651 13.5248 48.1917 13.0198L21.2577 32.8707C18.0698 35.2217 14.6664 37.7882 11.4669 40.0792C6.21583 43.8392 6.49454 45.5772 6.56002 51.6095C8.11817 52.7055 9.78776 53.9275 11.3837 54.9427L16.5059 58.49ZM33.1926 103.375L39.1684 107.554C39.1347 101.016 39.4624 90.8907 38.6511 84.7345C37.9172 79.1675 21.4513 70.4812 16.6863 66.4405C13.6363 68.6535 9.39143 71.59 6.52863 73.9525C6.5421 86.7635 7.21166 85.4567 17.5962 92.619L33.1926 103.375ZM70.4843 107.623C72.4168 106.219 74.4346 104.758 76.4366 103.46C84.1604 97.7177 93.6969 92.2815 100.865 85.8642C103.485 83.5182 103.16 77.4645 103.183 73.9762C99.9651 71.4327 96.2592 68.9757 93.173 66.458L80.807 74.9765C78.2281 76.7472 74.9974 78.6492 72.8435 80.8555C69.9827 83.7857 70.5918 89.192 70.5483 92.9735C70.492 97.8497 70.6965 102.746 70.4843 107.623ZM102.821 59.7137C101.455 60.705 100.07 61.67 98.6674 62.608C99.465 63.1442 100.636 63.8812 101.317 64.51L103.173 65.7752C103.176 64.6777 103.358 60.3567 102.821 59.7137Z" fill="#FEFEFE"></path><path d="M491.137 63.4642C489.63 63.5492 486.539 63.1172 485.594 63.4895C481.662 66.6917 485.759 77.6465 483.774 82.0825C482.739 84.3995 476.321 83.8237 474.814 83.0182C474.042 82.087 474.312 77.801 474.312 76.3695L474.317 64.4362L474.322 43.7393C474.319 40.642 474.274 37.5455 474.272 34.4495C474.224 33.5175 474.824 32.4528 475.759 32.2505C478.693 31.6148 481.695 31.4215 484.692 31.2538C491.64 30.8655 499.963 30.971 505.596 35.6813C511.72 40.7998 511.78 52.6983 506.084 58.2143C504.622 59.63 502.952 60.7303 501.585 62.2823C501.445 63.5715 510.535 79.826 511.875 82.3938V83.1505C510.155 83.701 504.062 83.4695 502.012 83.438C500.6 81.489 498.693 77.7163 497.491 75.471C495.386 71.5428 493.114 67.4445 491.137 63.4642ZM484.097 39.8402C484.094 44.8457 484.204 50.3275 484.084 55.2933C487.518 55.525 493.762 56.0118 496.824 54.4563C499.79 52.6565 500.143 51.3313 500.388 48.0133C501.038 39.1838 492.672 39.0868 486.246 39.6495L484.097 39.8402Z" fill="#FEFEFE"></path><path d="M511.875 104.184C510.76 107.275 505.804 108.021 504.164 103.677C505.134 102.794 508.228 107.14 510.23 103.961C509.945 101.963 505.332 101.702 504.662 99.6762C503.055 94.825 512.787 95.6235 511.565 98.8788C510.693 98.8273 509.416 97.9577 508.608 97.4867C507.491 97.352 506.296 97.7405 506.126 98.9705C507.204 101.001 509.988 100.204 511.875 102.683V104.184Z" fill="#FEFEFE"></path></g><defs><clipPath id="clip0_26_234"><rect width="511.875" height="120" fill="white"></rect></clipPath></defs></svg>